<?xml version="1.0" encoding="UTF-8"?>
<!DOCTYPE svg PUBLIC "-//W3C//DTD SVG 1.1//EN" "http://www.w3.org/Graphics/SVG/1.1/DTD/svg11.dtd">
<!-- Creator: CorelDRAW 2019 -->
<svg xmlns="http://www.w3.org/2000/svg" xml:space="preserve" width="0.826409in" height="0.80074in" version="1.1" style="shape-rendering:geometricPrecision; text-rendering:geometricPrecision; image-rendering:optimizeQuality; fill-rule:evenodd; clip-rule:evenodd"
viewBox="0 0 519.15 503.03"
 xmlns:xlink="http://www.w3.org/1999/xlink">
 <defs>
  <style type="text/css">
   <![CDATA[
    .str0 {stroke:#89283B;stroke-width:18.85;stroke-linecap:round;stroke-miterlimit:2.61313}
    .fil1 {fill:none}
    .fil0 {fill:#89283B}
   ]]>
  </style>
 </defs>
 <g id="Layer_x0020_1">
  <metadata id="CorelCorpID_0Corel-Layer"/>
  <g id="_725262240">
   <path class="fil0" d="M-0 159.35c0,19.98 2.08,38.69 8.76,55.47 6.09,15.3 4.45,13.89 12.33,29.52 1.76,3.48 2.82,6.72 4.62,9.98l44.36 68.54 31.01 39.06c9.16,11.44 37.81,39.56 49.92,49.35 31.92,25.79 28.32,23.54 66.96,45.94l28.41 13.44c3.88,1.45 7,2.48 10.55,4.05 6.46,2.85 12.66,5.96 19.85,8.38 7.66,2.58 12.99,5.24 20.43,7.79 10.36,3.55 34.21,11.37 44.44,12.01 13.09,0.81 35.54,-1.54 48.52,-5.92 15.04,-5.08 24.08,-9.77 37.68,-18.76 9.65,-6.38 22.73,-18.17 27.65,-28.8 1.5,-3.23 2.16,-6.22 3.32,-10.31 5.35,-18.89 7.38,-19.24 7.38,-42.26 0,-9.62 -15.02,-14.88 -24,-19.8l-28.87 -15.9c-3.27,-1.5 -4.35,-1.61 -7.32,-3.39 -2.6,-1.56 -4.53,-2.9 -7.29,-4.39l-21.74 -11.34c-2.83,-1.6 -5.25,-2.36 -8.08,-3.6 -23.22,-10.18 -22.22,-7.52 -39.65,12.96 -2.42,2.84 -3.83,5.53 -6.35,8.25l-27.25 29.2c-6.02,4.92 -15.12,2.68 -21.01,-0.91l-54.27 -30.4 -23.52 -18.33c-9.75,-9.08 -19.89,-17.73 -28.7,-27.74l-24.67 -31.78c-6.02,-8.7 -25.7,-37.44 -25.7,-45.34 0,-2.11 2.59,-7.46 3.71,-8.94l12.55 -12.76c5.89,-7.04 12.28,-13.28 17.22,-20.73 1.96,-2.95 3.31,-4.52 4.77,-7.88 8.69,-20.03 0.52,-21.44 -9.66,-52.24l-13.7 -37.88c-4.78,-12.14 -9.29,-27.73 -15.68,-35.9 -4.52,-5.78 -8.81,-6.66 -18.7,-6.61 -15.2,0.08 -26.95,-5.57 -41.8,2.92 -5.59,3.2 -8.85,5.15 -13.08,10.27 -2.27,2.75 -3.14,2.43 -5.72,4.99 -7.16,7.12 -20.09,24.45 -24.04,33.38 -8.1,18.33 -13.63,33.55 -13.63,56.43z"/>
   <g>
    <path class="fil1 str0" d="M241.1 81.91c0,0 205.22,-26.5 190.36,180.26"/>
    <path class="fil1 str0" d="M224.2 11.05c0,0 306.6,-39.59 284.39,269.3"/>
    <path class="fil1 str0" d="M265.23 151.12c0,0 101.87,-13.15 94.49,89.47"/>
   </g>
  </g>
 </g>
</svg>
