<svg width="212" height="35" viewBox="0 0 212 35" fill="none" xmlns="http://www.w3.org/2000/svg">
<path fill-rule="evenodd" clip-rule="evenodd" d="M29.0982 9.3105L27.3035 1.08564L7.47633 1.01349L0 30.9278L23.7637 31L28.9899 12.4895L18.542 12.2821L16.3911 20.4754L14.168 20.4213L17.5184 9.21129L29.0982 9.3105Z" fill="#CA2223"/>
<path fill-rule="evenodd" clip-rule="evenodd" d="M29.7168 1L31.7865 9.16173H48.6286L51.0455 1.05862L29.7168 1Z" fill="#898989"/>
<path fill-rule="evenodd" clip-rule="evenodd" d="M29.834 19.2218H45.6975L47.7086 12.3813H31.6738L29.834 19.2218Z" fill="#898989"/>
<path fill-rule="evenodd" clip-rule="evenodd" d="M28.6246 22.5H44.5468L42.1884 30.9729L26.3745 30.9143L28.6246 22.5Z" fill="#898989"/>
<path fill-rule="evenodd" clip-rule="evenodd" d="M141.111 20.7785C140.065 19.6947 139.653 19.41 139.54 17.9729C139.958 17.934 140.376 17.8952 140.792 17.8563C143.263 14.289 145.599 7.94218 145.676 3.63725C144.633 2.41494 144.633 2.41494 143.856 1.84547C143.91 1.3834 143.965 0.921324 144.02 0.459955C145.73 0.582893 146.698 0.831593 148.258 1.60031C149.948 5.51946 151.636 9.48455 153.371 13.451C159.126 2.30331 159.126 2.30331 160.123 0.885997C161.049 0.902954 161.698 0.821702 162.383 1.38976C163.787 13.4984 163.787 13.4984 164.216 15.358C164.713 16.061 165.126 16.2998 165.11 17.1794C164.122 18.088 163.423 18.2604 162.128 18.2371C160.491 16.5414 160.006 7.41227 159.762 5.50957C157.653 9.54601 155.59 13.5832 153.527 17.6203C150.684 18.6808 147.796 9.27753 147.233 7.13743C146.533 9.99537 145.004 20.4309 141.11 20.7785H141.111ZM115.332 20.3186C114.286 19.2347 113.875 18.95 113.762 17.5122C114.179 17.4734 114.596 17.4345 115.014 17.3956C117.485 13.8283 119.82 7.48151 119.897 3.17729C118.854 1.95499 118.854 1.95499 118.077 1.38552C118.132 0.923443 118.186 0.461368 118.24 0C119.951 0.122937 120.919 0.371638 122.479 1.14035C124.168 5.05951 125.857 9.02459 127.591 12.9911C133.346 1.84335 133.346 1.84335 134.344 0.426042C135.269 0.442998 135.919 0.361747 136.603 0.929802C138.008 13.0384 138.008 13.0384 138.438 14.898C138.934 15.601 139.347 15.8398 139.331 16.7195C138.342 17.6281 137.645 17.8005 136.348 17.7772C134.712 16.0815 134.227 6.95232 133.983 5.04962C131.874 9.08606 129.811 13.1232 127.748 17.1604C124.905 18.2209 122.017 8.81758 121.453 6.67748C120.754 9.53542 119.225 19.971 115.33 20.3186H115.332ZM167.268 20.7828C163.714 17.2296 167.312 18.962 169.602 17.0742C170.102 16.6615 172.343 13.9746 172.917 12.9197C169.685 12.4456 169.357 12.671 169.226 9.61314C169.321 9.52199 169.415 9.43156 169.509 9.34041C171.395 10.0222 172.829 10.0943 174.865 10.1303C178.769 4.08943 178.769 4.08943 178.873 3.44295C178.095 2.96604 176.025 2.23477 176.416 1.0379C177.25 1.00681 178.083 0.97502 178.964 0.944639C185.33 2.26233 184.738 12.0196 189.435 16.0391C189.582 16.3196 189.577 16.5972 189.419 16.9187C188.433 17.6881 187.969 17.7263 186.715 17.9814C185.075 16.5167 184.242 13.863 183.352 11.8564C180.8 12.1814 178.338 12.6004 175.791 12.647C174.999 13.9237 169.54 23.0536 167.266 20.7821L167.268 20.7828ZM192.028 21.2244C190.516 20.3638 190.01 20.1695 189.9 18.5473C190.458 18.4646 191.014 18.4286 191.57 18.3919C193.732 13.9393 195.343 9.339 196.585 4.54586C195.865 3.42176 195.276 2.67071 194.226 1.81862C194.232 1.49432 194.238 1.17073 194.243 0.893062C195.598 0.176634 196.932 0.662731 198.267 1.10361C202.31 5.43468 204.693 12.0055 209.353 15.4682C210.112 11.8705 209.76 8.25376 209.316 4.63417C208.883 2.91376 208.436 2.07227 208.496 1.2859C210.264 0.762353 210.853 1.46748 211.895 2.78234C211.825 6.6697 212.825 15.4845 209.81 18.3933C209.095 18.5445 208.495 18.4413 207.964 18.129C204.509 14.549 201.253 10.2314 198.174 6.3341C196.929 11.2657 195.86 16.7096 193.097 21.0124C192.723 21.2576 192.351 21.2978 192.029 21.2244H192.028ZM89.972 19.6629C88.2749 18.7988 87.8644 15.8292 87.3853 14.1533C82.7971 17.0346 75.666 21.2208 71.3703 16.5527C66.6838 11.46 75.0965 3.37512 80.4076 1.87444C84.225 0.79556 90.5718 -0.928389 90.935 4.63417C89.4569 4.46884 88.6345 3.64926 86.2796 3.48605C79.6304 3.02468 72.9359 6.37296 73.7435 13.309C74.2049 17.2755 79.0652 16.0426 82.417 14.9913C83.6336 14.2727 86.156 13.0215 86.9656 11.7391C86.9402 10.5811 86.5467 9.27753 87.1663 8.27072C87.7209 8.32653 88.3215 8.38376 88.922 8.44099C90.6093 9.90635 91.544 17.1914 91.0388 19.5435C90.6679 19.5831 90.297 19.6226 89.972 19.6636V19.6629ZM98.1317 18.572C85.7052 17.1978 99.554 -6.27687 112.171 1.97618C112.159 2.63679 112.147 3.29741 112.135 4.00465C111.338 4.03786 110.102 3.54399 107.721 3.02963C102.167 2.93001 99.7624 4.83836 96.8642 8.68757C99.5512 8.78295 99.5512 8.78296 110.268 8.1718C110.005 8.96948 109.742 9.76716 109.528 10.5655C108.976 10.839 108.976 10.839 107.08 11.041C103.347 10.9746 99.6134 10.9082 95.9288 10.8891C95.5988 12.6293 94.9764 13.9569 96.453 15.004C99.0792 16.865 102.336 16.3372 105.648 15.9705C109.725 15.5184 112.503 14.0636 114.15 13.9046C114.091 14.3752 114.082 14.8945 114.073 15.4131C108.654 17.6761 103.932 19.215 98.1317 18.5734V18.572ZM177.177 10.3105C177.991 8.79709 178.851 7.33102 179.71 5.86496C179.896 5.82186 180.082 5.77876 180.268 5.73637C180.981 7.27662 181.74 8.81828 182.499 10.4059C180.695 10.3741 178.936 10.3423 177.177 10.3105V10.3105Z" fill="#CA2223"/>
<path fill-rule="evenodd" clip-rule="evenodd" d="M70.1235 25.1824H73.2422V34.9552H70.1235V25.1824Z" fill="#898989"/>
<path fill-rule="evenodd" clip-rule="evenodd" d="M75.2266 25.1824H78.3452V34.9552H75.2266V25.1824Z" fill="#CA2223"/>
<path fill-rule="evenodd" clip-rule="evenodd" d="M203.12 25.1824H206.239V34.9552H203.12V25.1824Z" fill="#CA2223"/>
<path fill-rule="evenodd" clip-rule="evenodd" d="M208.222 25.1824H211.342V34.9552H208.222V25.1824Z" fill="#898989"/>
<path fill-rule="evenodd" clip-rule="evenodd" d="M80.7598 25.1824H200.672V34.9552H80.7598V25.1824Z" fill="#898989"/>
<path d="M87.6411 32.7169V27.4214H91.4691V28.0459H88.3413V29.6674H91.2706V30.2885H88.3413V32.0909H91.5928V32.7161H87.6411V32.7169ZM98.1014 32.7169V27.4214H98.8199L101.602 31.5786V27.4214H102.273V32.7169H101.555L98.774 28.5554V32.7169H98.1021H98.1014ZM110.348 32.7169V28.0466H108.603V27.4221H112.8V28.0466H111.049V32.7169H110.348H110.348ZM119.083 32.7169V27.4214H122.911V28.0459H119.783V29.6674H122.712V30.2885H119.783V32.0909H123.034V32.7161H119.083V32.7169ZM129.562 32.7169V27.4214H131.91C132.382 27.4214 132.741 27.4694 132.986 27.5648C133.231 27.6595 133.428 27.8269 133.575 28.0678C133.722 28.3095 133.795 28.5758 133.795 28.8669C133.795 29.2428 133.674 29.5586 133.43 29.8165C133.187 30.0744 132.811 30.2383 132.303 30.3083C132.489 30.3966 132.629 30.4842 132.726 30.5718C132.93 30.759 133.124 30.995 133.307 31.2755L134.229 32.7169H133.347L132.647 31.6147C132.442 31.2974 132.273 31.0537 132.14 30.8862C132.008 30.7174 131.89 30.5987 131.786 30.5322C131.68 30.4644 131.574 30.4178 131.466 30.3902C131.386 30.374 131.256 30.3655 131.075 30.3655H130.263V32.7169H129.563H129.562ZM130.262 29.7593H131.769C132.089 29.7593 132.34 29.7261 132.52 29.6597C132.701 29.5933 132.838 29.4873 132.932 29.341C133.025 29.1955 133.072 29.0379 133.072 28.8662C133.072 28.6161 132.982 28.4098 132.799 28.2487C132.618 28.0876 132.331 28.0071 131.937 28.0071H130.262V29.7586L130.262 29.7593ZM140.442 32.7169V27.4214H142.439C142.791 27.4214 143.059 27.4383 143.244 27.4722C143.504 27.5153 143.722 27.598 143.899 27.7202C144.074 27.841 144.216 28.012 144.323 28.2303C144.43 28.4501 144.483 28.6903 144.483 28.9531C144.483 29.4032 144.34 29.7854 144.055 30.0977C143.767 30.4079 143.25 30.5647 142.501 30.5647H141.142V32.7176H140.442V32.7169ZM141.142 29.9395H142.512C142.965 29.9395 143.287 29.8554 143.477 29.6865C143.667 29.5177 143.761 29.281 143.761 28.975C143.761 28.7532 143.705 28.5631 143.594 28.4056C143.482 28.248 143.335 28.1441 143.152 28.094C143.033 28.0629 142.816 28.0466 142.498 28.0466H141.143V29.9395H141.142ZM150.936 32.7169V27.4214H153.284C153.756 27.4214 154.115 27.4694 154.36 27.5648C154.605 27.6595 154.802 27.8269 154.949 28.0678C155.096 28.3095 155.169 28.5758 155.169 28.8669C155.169 29.2428 155.048 29.5586 154.804 29.8165C154.561 30.0744 154.185 30.2383 153.677 30.3083C153.863 30.3966 154.003 30.4842 154.1 30.5718C154.304 30.759 154.498 30.995 154.682 31.2755L155.603 32.7169H154.721L154.021 31.6147C153.816 31.2974 153.647 31.0537 153.514 30.8862C153.382 30.7174 153.264 30.5987 153.16 30.5322C153.054 30.4644 152.948 30.4178 152.84 30.3902C152.76 30.374 152.63 30.3655 152.45 30.3655H151.637V32.7169H150.937H150.936ZM151.636 29.7593H153.143C153.463 29.7593 153.714 29.7261 153.894 29.6597C154.075 29.5933 154.212 29.4873 154.306 29.341C154.4 29.1955 154.446 29.0379 154.446 28.8662C154.446 28.6161 154.357 28.4098 154.174 28.2487C153.992 28.0876 153.705 28.0071 153.312 28.0071H151.636V29.7586L151.636 29.7593ZM161.936 32.7169V27.4214H162.636V32.7169H161.936ZM169.182 31.0155L169.842 30.9576C169.873 31.2225 169.946 31.4394 170.061 31.6097C170.175 31.7793 170.353 31.9163 170.593 32.0216C170.834 32.1262 171.105 32.1785 171.406 32.1785C171.673 32.1785 171.909 32.1389 172.113 32.0598C172.318 31.9799 172.471 31.8711 172.571 31.7334C172.671 31.5942 172.722 31.4437 172.722 31.2798C172.722 31.113 172.673 30.9689 172.576 30.8445C172.48 30.7202 172.321 30.6163 172.1 30.5329C171.956 30.4771 171.643 30.3909 171.157 30.2744C170.671 30.1571 170.329 30.0476 170.135 29.9437C169.882 29.8116 169.693 29.6462 169.569 29.4505C169.446 29.2541 169.384 29.0351 169.384 28.7906C169.384 28.5243 169.459 28.2741 169.611 28.0424C169.763 27.8092 169.984 27.6326 170.275 27.5125C170.567 27.3931 170.89 27.3323 171.246 27.3323C171.639 27.3323 171.985 27.3952 172.286 27.5224C172.585 27.6482 172.816 27.834 172.977 28.0799C173.138 28.3257 173.225 28.6041 173.237 28.915L172.565 28.9658C172.529 28.6317 172.406 28.3773 172.198 28.2077C171.99 28.0368 171.683 27.9513 171.276 27.9513C170.852 27.9513 170.543 28.029 170.349 28.1844C170.155 28.3399 170.058 28.5271 170.058 28.7454C170.058 28.9369 170.127 29.093 170.263 29.2153C170.399 29.3382 170.75 29.4647 171.32 29.5925C171.89 29.7218 172.281 29.8342 172.493 29.9303C172.801 30.0737 173.029 30.2539 173.176 30.4701C173.323 30.6884 173.395 30.9399 173.395 31.2232C173.395 31.5058 173.315 31.7708 173.153 32.0195C172.991 32.2682 172.76 32.4618 172.458 32.601C172.156 32.7395 171.816 32.808 171.438 32.808C170.959 32.808 170.557 32.7388 170.234 32.5982C169.91 32.459 169.656 32.2491 169.471 31.9686C169.287 31.6888 169.19 31.3702 169.181 31.0169L169.182 31.0155ZM179.918 32.7169V27.4214H183.746V28.0459H180.618V29.6674H183.547V30.2885H180.618V32.0909H183.869V32.7161H179.918V32.7169ZM190.148 31.0155L190.808 30.9576C190.839 31.2225 190.912 31.4394 191.026 31.6097C191.141 31.7793 191.318 31.9163 191.559 32.0216C191.799 32.1262 192.071 32.1785 192.372 32.1785C192.639 32.1785 192.875 32.1389 193.079 32.0598C193.284 31.9799 193.436 31.8711 193.537 31.7334C193.636 31.5942 193.687 31.4437 193.687 31.2798C193.687 31.113 193.639 30.9689 193.542 30.8445C193.446 30.7202 193.287 30.6163 193.066 30.5329C192.922 30.4771 192.609 30.3909 192.122 30.2744C191.637 30.1571 191.295 30.0476 191.101 29.9437C190.848 29.8116 190.659 29.6462 190.535 29.4505C190.412 29.2541 190.35 29.0351 190.35 28.7906C190.35 28.5243 190.424 28.2741 190.576 28.0424C190.728 27.8092 190.95 27.6326 191.241 27.5125C191.533 27.3931 191.856 27.3323 192.212 27.3323C192.605 27.3323 192.95 27.3952 193.251 27.5224C193.551 27.6482 193.781 27.834 193.943 28.0799C194.103 28.3257 194.191 28.6041 194.203 28.915L193.531 28.9658C193.494 28.6317 193.372 28.3773 193.164 28.2077C192.955 28.0368 192.649 27.9513 192.242 27.9513C191.818 27.9513 191.509 28.029 191.315 28.1844C191.121 28.3399 191.024 28.5271 191.024 28.7454C191.024 28.9369 191.093 29.093 191.229 29.2153C191.365 29.3382 191.716 29.4647 192.286 29.5925C192.856 29.7218 193.246 29.8342 193.458 29.9303C193.766 30.0737 193.995 30.2539 194.142 30.4701C194.289 30.6884 194.361 30.9399 194.361 31.2232C194.361 31.5058 194.281 31.7708 194.119 32.0195C193.957 32.2682 193.725 32.4618 193.424 32.601C193.121 32.7395 192.782 32.808 192.404 32.808C191.924 32.808 191.522 32.7388 191.2 32.5982C190.875 32.459 190.622 32.2491 190.437 31.9686C190.253 31.6888 190.155 31.3702 190.147 31.0169L190.148 31.0155Z" fill="white"/>
</svg>
