<?xml version="1.0" encoding="UTF-8"?>
<!DOCTYPE svg PUBLIC "-//W3C//DTD SVG 1.1//EN" "http://www.w3.org/Graphics/SVG/1.1/DTD/svg11.dtd">
<!-- Creator: CorelDRAW 2019 -->
<svg xmlns="http://www.w3.org/2000/svg" xml:space="preserve" width="0.780512in" height="0.785772in" version="1.1" style="shape-rendering:geometricPrecision; text-rendering:geometricPrecision; image-rendering:optimizeQuality; fill-rule:evenodd; clip-rule:evenodd"
viewBox="0 0 158.79 159.86"
 xmlns:xlink="http://www.w3.org/1999/xlink">
 <defs>
  <style type="text/css">
   <![CDATA[
    .fil1 {fill:#59B83B}
    .fil0 {fill:#6DBC35}
   ]]>
  </style>
 </defs>
 <g id="Layer_x0020_1">
  <metadata id="CorelCorpID_0Corel-Layer"/>
  <g id="_724732376">
   <path class="fil0" d="M16.09 77.94c0,-8.73 1.84,-17.13 5.04,-25.14 0.93,-2.34 2.22,-4.51 3.36,-6.76 0.47,-0.92 0.99,-1.56 1.49,-2.49 2.27,-4.19 7.44,-10.01 11.04,-13.34 0.43,-0.39 0.65,-0.48 1.08,-0.91l2.15 -1.83c2.92,-2.74 10.17,-7.06 13.83,-8.56l5.68 -2.28c1.14,-0.41 1.73,-0.64 3.02,-0.96 6.54,-1.62 11.05,-2.59 18.64,-2.59 6.28,0 14.76,1.27 20.51,3.53 2.82,1.11 5.87,2.05 8.47,3.63 0.87,0.53 1.72,0.82 2.62,1.36 1.75,1.06 3.26,2.07 4.94,3.18 1.59,1.05 3,2.27 4.51,3.45l3.03 2.77c0.02,0.02 0.06,0.06 0.08,0.09l2.06 2.09c0.94,1.07 1.99,1.99 2.86,3.11 0.58,0.75 1.15,1.44 1.77,2.21 1.23,1.51 2.25,3.18 3.33,4.79l4.23 7.87c0.44,0.99 0.77,1.78 1.22,2.77 0.44,0.97 0.69,2 1.03,2.95 0.36,0.99 0.75,1.91 1.02,2.96 2.71,10.64 3.53,21.69 0.82,32.51 -0.8,3.19 -1.52,6.33 -2.82,9.28 -0.43,0.97 -0.83,1.83 -1.25,2.89 -0.74,1.87 -1.68,3.58 -2.69,5.27l-1.47 2.51c-1.45,1.95 -2.63,4.06 -4.23,5.88 -0.39,0.44 -0.53,0.81 -0.92,1.24 -1.35,1.52 -3.42,3.98 -4.9,5.22 -0.47,0.39 -0.62,0.46 -1.07,0.92 -1.51,1.54 -3.03,2.5 -4.31,3.65 -1.44,1.3 -3.16,2.26 -4.78,3.34l-2.59 1.56c-2.53,1.52 -5.45,2.75 -8.15,3.96 -1.03,0.46 -1.94,0.65 -2.93,1.05 -4.41,1.77 -11.96,3.27 -16.92,3.31l-3.97 0.17c-3.06,0 -6.83,-0.19 -9.48,-0.64 -2.71,-0.46 -5.42,-0.99 -8.07,-1.72 -2.62,-0.71 -8.41,-2.69 -10.68,-4.08l-7 -3.96c-0.88,-0.59 -1.67,0.06 -2.65,0.38 -1.3,0.43 -2.55,0.79 -3.77,1.2 -2.4,0.8 -5.1,1.5 -7.42,2.37l-11.3 3.62c0.13,-1.54 1.75,-5.58 2.34,-7.44 0.17,-0.52 0.34,-0.86 0.54,-1.45l2.52 -7.43c0.52,-1.77 2.39,-6.18 2.39,-7.56l-4.09 -6.69c-0.25,-0.5 -0.36,-0.6 -0.61,-1.05 -2.97,-5.34 -5.6,-12.77 -6.46,-18.74 -0.54,-3.76 -1.11,-7.56 -1.11,-11.49zm-13.1 -1.66c0,4.94 0.35,10.68 1.11,15.14 0.86,5.01 3.09,13.01 5.35,17.7 0.36,0.75 0.67,1.46 1.05,2.27l2.23 4.4c2.12,3.52 1.29,1.83 -0.19,6.87l-9.99 29.81c-0.2,0.56 -0.28,0.64 -0.46,1.2 -0.58,1.88 -1.26,4.45 -2.09,6.2 1.14,-0.02 3.94,-1.12 5,-1.47 1.66,-0.55 3.21,-1.02 4.89,-1.58l24.64 -7.86c1.78,-0.45 3.26,-1.2 5.01,-1.63 0.94,-0.23 1.56,-0.46 2.4,-0.75 1.36,-0.46 1.06,-0.62 2.25,0.12l4.31 2.16c0.45,0.18 0.71,0.23 1.09,0.4 6.04,2.72 12.37,4.49 18.95,5.59 8.71,1.46 17.38,1.21 26.04,-0.24 6.38,-1.06 12.81,-3.02 18.64,-5.74 1.12,-0.52 2.14,-1.07 3.2,-1.61l13.17 -8.55c0.57,-0.44 0.87,-0.62 1.38,-1.11 0.47,-0.45 0.76,-0.6 1.24,-1.08 0.81,-0.8 2.54,-2.12 3.21,-2.93 0.28,-0.33 0.24,-0.4 0.61,-0.72 1.69,-1.42 3.17,-3.31 4.63,-4.98 0.37,-0.43 0.66,-0.82 1.03,-1.29 0.24,-0.3 0.31,-0.34 0.54,-0.62 0.24,-0.28 0.36,-0.51 0.55,-0.78l4.92 -7.18c2.81,-4.71 5.19,-9.73 6.96,-14.93 1.83,-5.38 3.98,-14.76 4.05,-20.33 0.06,-4.98 0.29,-8.79 -0.39,-13.89 -0.72,-5.42 -1.8,-10.65 -3.49,-15.74 -0.78,-2.34 -1.77,-4.63 -2.76,-6.86 -2.45,-5.51 -4.27,-8.77 -7.79,-13.76 -0.34,-0.49 -0.67,-0.9 -1.07,-1.42 -3.17,-4.23 -5.3,-6.35 -9.09,-10.15 -0.48,-0.48 -0.66,-0.67 -1.22,-1.11 -0.54,-0.42 -0.76,-0.76 -1.3,-1.19 -0.97,-0.76 -1.69,-1.41 -2.65,-2.16l-7.03 -4.91c-0.61,-0.41 -0.92,-0.54 -1.58,-0.91 -0.52,-0.29 -0.99,-0.59 -1.45,-0.87 -3.28,-1.97 -9.63,-4.72 -13.32,-5.92l-5.64 -1.65c-1.37,-0.34 -2.59,-0.51 -3.98,-0.83 -1.35,-0.31 -2.67,-0.54 -4.07,-0.74 -4.02,-0.56 -8.81,-0.65 -13.11,-0.65 -6.84,0 -14.44,1.22 -20.33,3.21l-10.45 3.97c-5.2,2.31 -10.15,5.42 -14.63,8.92l-2.7 2.1c-1.71,1.38 -3.43,3.07 -4.99,4.63 -1.97,1.97 -3.67,4.13 -5.55,6.22l-3.06 4.07c-1.94,2.84 -3.85,5.79 -5.39,8.88l-1.54 3.26c-1.61,3.26 -2.86,6.82 -3.96,10.3 -1.94,6.12 -3.17,14.18 -3.17,20.71z"/>
   <path class="fil1" d="M41.95 58.37c0,3.4 0.35,6.59 1.49,9.45 1.04,2.61 0.76,2.37 2.1,5.03 0.3,0.59 0.48,1.14 0.79,1.7l7.56 11.68 5.28 6.66c1.56,1.95 6.44,6.74 8.51,8.41 5.44,4.39 4.83,4.01 11.41,7.83l4.84 2.29c0.66,0.25 1.19,0.42 1.8,0.69 1.1,0.49 2.16,1.01 3.38,1.43 1.3,0.44 2.21,0.89 3.48,1.33 1.77,0.6 5.83,1.94 7.57,2.04 2.23,0.14 6.06,-0.26 8.27,-1.01 2.56,-0.87 4.1,-1.67 6.42,-3.2 1.65,-1.09 3.87,-3.1 4.71,-4.91 0.25,-0.55 0.37,-1.06 0.56,-1.76 0.91,-3.22 1.26,-3.28 1.26,-7.2 0,-1.64 -2.56,-2.54 -4.09,-3.37l-4.92 -2.71c-0.56,-0.26 -0.74,-0.27 -1.25,-0.58 -0.44,-0.27 -0.77,-0.49 -1.24,-0.75l-3.71 -1.93c-0.48,-0.27 -0.89,-0.4 -1.38,-0.61 -3.96,-1.73 -3.79,-1.28 -6.76,2.21 -0.41,0.48 -0.65,0.94 -1.08,1.4l-4.64 4.98c-1.03,0.84 -2.58,0.46 -3.58,-0.16l-9.25 -5.18 -4.01 -3.12c-1.66,-1.55 -3.39,-3.02 -4.89,-4.73l-4.2 -5.41c-1.03,-1.48 -4.38,-6.38 -4.38,-7.73 0,-0.36 0.44,-1.27 0.63,-1.52l2.14 -2.17c1,-1.2 2.09,-2.26 2.93,-3.53 0.33,-0.5 0.56,-0.77 0.81,-1.34 1.48,-3.41 0.09,-3.65 -1.65,-8.9l-2.33 -6.45c-0.81,-2.07 -1.58,-4.72 -2.67,-6.12 -0.77,-0.98 -1.5,-1.13 -3.19,-1.13 -2.59,0.01 -4.59,-0.95 -7.12,0.5 -0.95,0.54 -1.51,0.88 -2.23,1.75 -0.39,0.47 -0.53,0.41 -0.97,0.85 -1.22,1.21 -3.42,4.17 -4.1,5.69 -1.38,3.12 -2.32,5.72 -2.32,9.62z"/>
  </g>
 </g>
</svg>
